<mxfile host="drawio-plugin" modified="2023-07-18T19:53:39.509Z" agent="5.0 (Macintosh; Intel Mac OS X 10_15_7) AppleWebKit/537.36 (KHTML, like Gecko) Chrome/104.0.5112.102 Safari/537.36" etag="R3NSLkFxRD3ybRa6XCkN" version="20.5.3" type="embed"><diagram name="Page-1" id="jd4YIyCexjJDyu73cksG"><mxGraphModel dx="845" dy="755" grid="1" gridSize="10" guides="1" tooltips="1" connect="1" arrows="1" fold="1" page="1" pageScale="1" pageWidth="827" pageHeight="1169" math="0" shadow="0"><root><mxCell id="0"/><mxCell id="1" parent="0"/><mxCell id="3" value="" style="triangle;whiteSpace=wrap;html=1;" vertex="1" parent="1"><mxGeometry x="310" y="430" width="60" height="80" as="geometry"/></mxCell><mxCell id="4" value="" style="shape=cylinder3;whiteSpace=wrap;html=1;boundedLbl=1;backgroundOutline=1;size=15;" vertex="1" parent="1"><mxGeometry x="400" y="430" width="60" height="80" as="geometry"/></mxCell></root></mxGraphModel></diagram></mxfile>